<svg width="50" height="9" viewBox="0 0 50 9" fill="none" xmlns="http://www.w3.org/2000/svg">
<path d="M49.4503 2.9302C49.2788 2.76692 49.14 2.65262 48.9972 2.52199L48.5889 2.15868C48.0338 1.68924 47.5235 1.27287 47.0827 0.934061C46.2009 0.268683 45.5968 -0.0905356 45.4743 0.0196803C45.3519 0.129896 45.7437 0.68506 46.4703 1.50147C46.8337 1.90968 47.2868 2.37912 47.7888 2.88938L48.4338 3.52618C47.1031 3.39964 44.2293 3.29759 38.1184 3.28534C31.6891 3.28534 22.1493 3.4078 14.226 3.69355C10.2623 3.82825 6.70686 3.97929 4.13924 4.1344C1.57161 4.28952 -0.00407416 4.42015 7.91223e-06 4.51812C0.00408999 4.61609 1.58386 4.65691 4.15557 4.67324H14.2465C22.1698 4.67324 31.6932 4.67324 38.1143 4.67324C44.3967 4.67324 47.25 4.64875 48.5359 4.53854C48.4297 4.67325 48.3032 4.81612 48.1766 4.94675C47.9276 5.22841 47.6786 5.49374 47.4337 5.74274C46.9479 6.23667 46.4826 6.6653 46.0785 7.01636C45.262 7.72256 44.7436 8.15525 44.8334 8.29404C44.9232 8.43283 45.6213 8.22873 46.6132 7.64499C47.1915 7.30424 47.738 6.91214 48.246 6.47344C48.5318 6.22851 48.8175 5.9591 49.0992 5.65702C49.2421 5.50599 49.3727 5.3672 49.5074 5.18759C49.6794 4.98991 49.8173 4.76506 49.9156 4.52221C50.0281 4.21796 50.0281 3.8835 49.9156 3.57925C49.8102 3.32417 49.6515 3.09454 49.4503 2.90571" fill="white"/>
</svg>
