<svg width="19" height="20" viewBox="0 0 19 20" fill="none" xmlns="http://www.w3.org/2000/svg">
<path d="M17.6674 9.20746L8.85786 16.5995C8.04519 17.2814 6.99492 17.6126 5.93809 17.5201C4.88126 17.4277 3.90445 16.9192 3.22253 16.1065C2.54062 15.2938 2.20947 14.2435 2.30193 13.1867C2.39439 12.1299 2.90289 11.1531 3.71556 10.4712L13.2911 2.43631C13.799 2.01012 14.4555 1.80315 15.116 1.86094C15.7765 1.91872 16.387 2.23654 16.8132 2.74445C17.2394 3.25237 17.4464 3.90879 17.3886 4.56931C17.3308 5.22983 17.013 5.84034 16.5051 6.26653L8.46159 13.0158C8.25842 13.1863 7.99585 13.2691 7.73164 13.246C7.46744 13.2228 7.22323 13.0957 7.05276 12.8925C6.88228 12.6894 6.79949 12.4268 6.82261 12.1626C6.84572 11.8984 6.97285 11.6542 7.17601 11.4837L14.4534 5.37723L13.4893 4.22817L6.21183 10.3346C5.70391 10.7608 5.3861 11.3714 5.32831 12.0319C5.27053 12.6924 5.4775 13.3488 5.90369 13.8567C6.32988 14.3646 6.94039 14.6825 7.60091 14.7402C8.26143 14.798 8.91785 14.5911 9.42577 14.1649L17.4692 7.4156C18.2819 6.73369 18.7904 5.75688 18.8829 4.70005C18.9753 3.64322 18.6442 2.59294 17.9623 1.78027C17.2804 0.967602 16.3035 0.459105 15.2467 0.366644C14.1899 0.274184 13.1396 0.605334 12.3269 1.28725L2.75138 9.32209C1.63396 10.2597 0.934774 11.6028 0.807641 13.056C0.680507 14.5091 1.13584 15.9532 2.07347 17.0707C3.0111 18.1881 4.35422 18.8873 5.80736 19.0144C7.2605 19.1415 8.70462 18.6862 9.82204 17.7486L18.6316 10.3565L17.6674 9.20746Z" fill="#DEDFE0"/>
</svg>
