<svg width="100" height="78" viewBox="0 0 100 78" fill="none" xmlns="http://www.w3.org/2000/svg">
<g clip-path="url(#clip0_110_21)">
<path d="M25.4 19.7564L10.1458 30.4375C8.04831 31.9062 7.53384 34.8239 9.0025 36.9213L30.3647 67.4298C31.8334 69.5273 34.7511 70.0417 36.8486 68.5731L59.7299 52.5514C61.8274 51.0827 62.3419 48.165 60.8732 46.0676L44.8515 23.1862L25.4 19.7564ZM45.9987 45.1161L47.5258 55.4135L41.8054 59.419L40.2784 49.1216L34.5581 53.127L27.8824 43.5931L39.323 35.5822L45.9987 45.1161ZM32.8392 34.439L25.4959 23.9517L43.3265 27.0957L32.8392 34.439Z" fill="white"/>
</g>
<path d="M85.8008 58.3566C85.1955 56.4944 83.4497 55.121 81.378 55.121H79.0503V48.1378C79.0503 47.5205 78.805 46.9284 78.3685 46.4918C77.932 46.0553 77.3399 45.8101 76.7225 45.8101H62.7561V41.1546H67.4116C68.0289 41.1546 68.621 40.9093 69.0575 40.4728C69.4941 40.0362 69.7393 39.4442 69.7393 38.8268V34.1713H74.3948C75.6295 34.1713 76.8137 33.6808 77.6867 32.8078C78.5598 31.9347 79.0503 30.7505 79.0503 29.5158V28.5615C85.8706 31.3082 90.689 37.9888 90.689 45.8101C90.689 50.6518 88.8268 55.0512 85.8008 58.3566ZM69.7393 64.2691C60.5447 63.1285 53.4451 55.3073 53.4451 45.8101C53.4451 44.3669 53.6313 42.9702 53.9339 41.6434L65.0838 52.7933V55.121C65.0838 56.3558 65.5743 57.5399 66.4474 58.413C67.3204 59.2861 68.5046 59.7765 69.7393 59.7765M72.067 22.5326C69.0102 22.5326 65.9833 23.1347 63.1591 24.3045C60.335 25.4743 57.7689 27.1889 55.6074 29.3504C51.242 33.7158 48.7896 39.6365 48.7896 45.8101C48.7896 51.9836 51.242 57.9043 55.6074 62.2697C57.7689 64.4312 60.335 66.1458 63.1591 67.3156C65.9833 68.4854 69.0102 69.0875 72.067 69.0875C78.2406 69.0875 84.1613 66.6351 88.5267 62.2697C92.8921 57.9043 95.3445 51.9836 95.3445 45.8101C95.3445 42.7532 94.7424 39.7263 93.5726 36.9022C92.4028 34.078 90.6882 31.5119 88.5267 29.3504C86.3652 27.1889 83.7991 25.4743 80.975 24.3045C78.1508 23.1347 75.1239 22.5326 72.067 22.5326Z" fill="white"/>
<defs>
<clipPath id="clip0_110_21">
<rect width="55.8659" height="55.8659" fill="white" transform="translate(0 32.0433) rotate(-35)"/>
</clipPath>
</defs>
</svg>
