<svg width="92" height="68" viewBox="0 0 92 68" fill="none" xmlns="http://www.w3.org/2000/svg">
<path d="M23.0833 67.3333C16.75 67.3333 11.3472 65.1527 6.875 60.7916C2.40277 56.4027 0.166664 51.0555 0.166664 44.75C0.166664 39.3333 1.79166 34.5 5.04166 30.25C8.31944 26 12.5972 23.2916 17.875 22.125C19.625 15.7361 23.0972 10.5694 28.2917 6.62496C33.5139 2.65274 39.4167 0.666626 46 0.666626C54.1389 0.666626 61.0278 3.49996 66.6667 9.16663C72.3333 14.8055 75.1667 21.6944 75.1667 29.8333C79.9722 30.3888 83.9444 32.4722 87.0833 36.0833C90.25 39.6388 91.8333 43.8055 91.8333 48.5833C91.8333 53.8055 90.0139 58.2361 86.375 61.875C82.7361 65.5138 78.3056 67.3333 73.0833 67.3333H50.1667C47.8889 67.3333 45.9306 66.5138 44.2917 64.875C42.6528 63.2638 41.8333 61.3055 41.8333 59V37.5416L35.1667 44L29.3333 38.1666L46 21.5L62.6667 38.1666L56.8333 44L50.1667 37.5416V59H73.0833C76 59 78.4583 57.9861 80.4583 55.9583C82.4861 53.9583 83.5 51.5 83.5 48.5833C83.5 45.6666 82.4861 43.2083 80.4583 41.2083C78.4583 39.1805 76 38.1666 73.0833 38.1666H66.8333V29.8333C66.8333 24.0833 64.8056 19.1666 60.75 15.0833C56.6944 11.0277 51.7778 8.99996 46 8.99996C40.25 8.99996 35.3333 11.0277 31.25 15.0833C27.1944 19.1666 25.1667 24.0833 25.1667 29.8333H23.0833C19.0556 29.8333 15.625 31.2638 12.7917 34.125C9.93055 36.9583 8.5 40.3888 8.5 44.4166C8.5 48.4444 9.93055 51.9166 12.7917 54.8333C15.625 57.6111 19.0556 59 23.0833 59H33.5V67.3333" fill="white"/>
</svg>
